<svg data-v-0dd9719b="" version="1.0" xmlns="http://www.w3.org/2000/svg" xmlns:xlink="http://www.w3.org/1999/xlink" width="100%" height="100%" viewBox="0 0 340.000000 250.000000" preserveAspectRatio="xMidYMid meet" color-interpolation-filters="sRGB" style="margin: auto;"> <rect data-v-0dd9719b="" x="0" y="0" width="100%" height="100%" fill="#fff" fill-opacity="1" class="background"></rect> <rect data-v-0dd9719b="" x="0" y="0" width="100%" height="100%" fill="url(#watermark)" fill-opacity="1" class="watermarklayer"></rect> <g data-v-0dd9719b="" fill="#333" class="icon-text-wrapper icon-svg-group iconsvg" transform="translate(47.68739318888636,94.98979759216309)"><g class="iconsvg-imagesvg" transform="translate(0,0)"><g><rect fill="#333" fill-opacity="0" stroke-width="2" x="0" y="0" width="60" height="60.020406938359045" class="image-rect"></rect> <svg x="0" y="0" width="60" height="60.020406938359045" filtersec="colorsb9107395230" class="image-svg-svg primary" style="overflow: visible;"><svg xmlns="http://www.w3.org/2000/svg" viewBox="0.010678768157958984 0.00205716653726995 136.3583984375 136.40423583984375"><path d="M89.14 122.43c-2.33 2.25-4.57 4.46-6.86 6.63a37.23 37.23 0 0 1-4.72 4.27c-7.2 4.8-15.17 3.92-21.32-2.2Q45.5 120.44 34.8 109.72c-10-10-20-19.89-29.86-29.92C.2 75-1.14 69.24 1 62.79a16.68 16.68 0 0 1 4.31-6.58q6.59-6.55 13.14-13.14 16.31-16.38 32.67-32.75C53 8.39 55 6.46 56.92 4.58a16.27 16.27 0 0 1 22.94.31l8.26 8.31c.28.28.53.57.89 1-.39.4-.72.77-1.07 1.12Q70.1 33.11 52.27 50.93a23.53 23.53 0 0 0-6.92 12.15c-1.55 7.71-.08 14.8 5.37 20.57 6.71 7.12 13.74 13.94 20.64 20.87q8.56 8.61 17.15 17.17c.14.14.25.31.63.74zM32.28 68.2a8.17 8.17 0 0 0-8.13-8.2 8.22 8.22 0 1 0 0 16.44 8.15 8.15 0 0 0 8.13-8.24z" fill="#1274c6"></path><path d="M68.43 44.66l25.79-25.74c.62.75 1.23 1.64 2 2.39Q113.59 38.74 131 56.13a17.05 17.05 0 0 1 4.4 6.79 15.62 15.62 0 0 1-3.85 16.7c-6.65 6.85-13.47 13.54-20.22 20.29l-16.41 16.4c-.33.33-.68.64-.86.81-8.54-8.49-17-16.91-25.52-25.41 7.56-.36 13.83-3.27 18.43-9.36a23.57 23.57 0 0 0-2.1-30.76 23.26 23.26 0 0 0-16.44-6.93z" fill="#0c3b70"></path><path d="M51.53 68.15a16.7 16.7 0 1 1 16.68 16.71 16.62 16.62 0 0 1-16.68-16.71z" fill="#fb941c"></path></svg></svg> <!----></g></g> <g transform="translate(67,14.865202903747559)"><g data-gra="path-name" fill-rule="" class="tp-name iconsvg-namesvg"><g transform="scale(1)"><g><path d="M24.74-12.21L15.86-12.21 15.86-15.54 28.55-15.54 28.55 0 26.01 0 25.06-3.65Q21.73 0.32 15.54 0.48L15.54 0.48Q9.67 0.48 6.5-2.54L6.5-2.54Q1.74-6.98 1.9-14.75L1.9-14.75Q3.01-29.18 15.7-29.81L15.7-29.81Q26.48-29.18 28.07-20.3L28.07-20.3 24.26-20.3Q22.68-26.33 15.54-26.48L15.54-26.48Q6.5-25.85 6.03-14.59L6.03-14.59Q6.03-2.54 15.7-2.54L15.7-2.54Q19.19-2.54 21.73-4.44L21.73-4.44Q24.9-6.98 24.74-12.21L24.74-12.21ZM48.53-12.53L39.01-12.53 39.01 0 35.05 0 35.05-29.02 48.53-29.02Q58.2-29.02 58.2-21.25L58.2-21.25Q58.2-16.49 54.08-14.27L54.08-14.27Q57.57-13.32 57.57-8.72L57.57-8.72 57.89-3.49Q57.73-1.27 59.31-0.63L59.31-0.63 59.31 0 54.4 0Q53.92-2.06 53.76-7.3L53.76-7.3Q53.92-12.53 48.53-12.53L48.53-12.53ZM48.85-25.85L39.01-25.85 39.01-15.86 48.21-15.86Q54.08-15.86 54.08-20.93L54.08-20.93Q54.08-25.85 48.85-25.85L48.85-25.85ZM64.39-29.02L68.35-29.02 68.35 0 64.39 0 64.39-29.02ZM77.23-29.02L85.48-4.28 93.89-29.02 98.33-29.02 87.7 0 83.42 0 72.79-29.02 77.23-29.02ZM124.97-14.43L124.97-14.43Q124.33-25.85 114.82-26.48L114.82-26.48Q105.15-26.01 104.67-14.43L104.67-14.43Q105.15-3.17 114.82-2.7L114.82-2.7Q124.33-3.33 124.97-14.43ZM128.93-14.43L128.93-14.43Q127.98 0 114.82 0.48L114.82 0.48Q101.5 0 100.55-14.43L100.55-14.43Q101.34-29.5 114.82-29.81L114.82-29.81Q127.98-29.34 128.93-14.43ZM133.53-29.02L137.5-29.02 137.5-3.49 152.25-3.49 152.25 0 133.53 0 133.53-29.02ZM175.24 0L172.39-8.41 160.65-8.41 157.64 0 153.67 0 164.62-29.02 169.06-29.02 179.52 0 175.24 0ZM166.52-24.74L161.92-11.89 170.96-11.89 166.68-24.74 166.52-24.74Z" transform="translate(-1.894796371459961, 29.809999465942383)"></path></g> <!----> <!----> <!----> <!----> <!----> <!----> <!----></g></g> <!----></g></g><defs v-gra="od"></defs></svg>